/vscmnt/brussel_pixiu_data/_data_brussel/112/vsc11236/PredSimResults/SUBJ11mtu3D/weighted-expIG/worker_03.mot
version=1
nRows=6
nColumns=50
inDegrees=yes
endheader
                time	         pelvis_tilt	         pelvis_list	     pelvis_rotation	           pelvis_tx	           pelvis_ty	           pelvis_tz	       hip_flexion_r	     hip_adduction_r	      hip_rotation_r	        knee_angle_r	       ankle_angle_r	         mtp_angle_r	       hip_flexion_l	     hip_adduction_l	      hip_rotation_l	        knee_angle_l	       ankle_angle_l	         mtp_angle_l	    lumbar_extension	      lumbar_bending	     lumbar_rotation	 ercspn_r/activation	 intobl_r/activation	 extobl_r/activation	    abd_r/activation	    add_r/activation	hamstrings_r/activation	bifemsh_r/activation	glut_max_r/activation	iliopsoas_r/activation	rect_fem_r/activation	  vasti_r/activation	gastroc_r/activation	 soleus_r/activation	tib_ant_r/activation	 ercspn_l/activation	 intobl_l/activation	 extobl_l/activation	    abd_l/activation	    add_l/activation	hamstrings_l/activation	bifemsh_l/activation	glut_max_l/activation	iliopsoas_l/activation	rect_fem_l/activation	  vasti_l/activation	gastroc_l/activation	 soleus_l/activation	tib_ant_l/activation	
          1.40265481	         -6.39748823	         -4.93928598	          8.32268336	          1.47278755	          0.93820807	         -0.01730470	         31.69750939	          1.34778572	         -4.79158178	         -4.83652465	          5.30956062	          0.23276232	        -12.13725243	         -5.42089990	          4.16641760	         -7.99810076	         12.19281425	         28.26873849	         -3.71838241	          3.33509030	         -2.27304928	          0.08091082	          0.11452039	          0.02355667	          0.01000065	          0.13708422	          0.04387926	          0.18201066	          0.04948581	          0.08490829	          0.01001013	          0.01000058	          0.02305830	          0.01000057	          0.28924970	          0.05711397	          0.01000031	          0.01000097	          0.04377939	          0.03233346	          0.02413340	          0.11780752	          0.04649975	          0.45018409	          0.01000356	          0.01000101	          0.33614397	          0.25599309	          0.01000017	
          1.41668135	         -6.51259185	         -4.77488449	          8.34409146	          1.49112388	          0.93613911	         -0.01656740	         31.69549948	          1.35554854	         -4.83871536	         -6.50257018	          4.91249446	          0.18744159	        -12.32115664	         -5.32842272	          3.78781062	         -9.49073398	         11.58359743	         30.33030946	         -3.40103794	          3.61267166	         -2.45064255	          0.06558032	          0.10882029	          0.01909319	          0.02616578	          0.12066577	          0.05540337	          0.14752425	          0.08339189	          0.06881990	          0.01000071	          0.01000022	          0.01868975	          0.01233807	          0.32101412	          0.07212694	          0.01000020	          0.01000098	          0.03548410	          0.04308448	          0.02485527	          0.09548557	          0.03768902	          0.44171972	          0.01000176	          0.01932307	          0.30568234	          0.23846734	          0.01000006	
          1.43070790	         -6.60523353	         -4.60486429	          8.31218842	          1.50969140	          0.93455728	         -0.01573285	         31.48960852	          1.35664860	         -4.91018821	         -7.86262038	          4.33528099	          0.17507163	        -12.28893375	         -5.21779374	          3.38272402	        -11.40763360	         10.79788614	         32.48523644	         -3.08792404	          3.89549742	         -2.60040691	          0.07970195	          0.08820115	          0.01547544	          0.09975788	          0.14643730	          0.05541785	          0.11957206	          0.09908600	          0.05577993	          0.01000054	          0.01000011	          0.01514852	          0.01000033	          0.36155174	          0.10050107	          0.01000017	          0.01000058	          0.02876059	          0.04226843	          0.02264932	          0.07739319	          0.03054773	          0.42836059	          0.01001043	          0.01735942	          0.24959009	          0.20013304	          0.01000006	
          1.44473445	         -6.67451005	         -4.42927687	          8.23123720	          1.52819796	          0.93367589	         -0.01480415	         31.17747575	          1.36533870	         -5.00862039	         -9.06563611	          3.73034806	          0.13254328	        -11.94760002	         -5.08739019	          2.95874115	        -13.87088817	          9.81715436	         34.65376032	         -2.80506515	          4.18375867	         -2.71886616	          0.08238336	          0.07148888	          0.01254320	          0.13832160	          0.17102765	          0.04896762	          0.09691586	          0.12433746	          0.04521078	          0.01000089	          0.01770089	          0.01227986	          0.01006974	          0.38936058	          0.13151161	          0.01000018	          0.01000064	          0.02331105	          0.05972328	          0.02030560	          0.06272904	          0.02475957	          0.40049827	          0.01000253	          0.01407030	          0.20229780	          0.16221188	          0.01000006	
          1.45876100	         -6.71833152	         -4.25165306	          8.10515555	          1.54645651	          0.93355616	         -0.01380358	         30.81670597	          1.38203166	         -5.12481156	        -10.24973788	          3.33941812	          0.10188936	        -11.24479886	         -4.94184927	          2.50951323	        -16.94208720	          8.62776681	         36.70372585	         -2.56451359	          4.48157914	         -2.80232566	          0.08240575	          0.05794324	          0.01016660	          0.14894875	          0.15771358	          0.05039691	          0.07855258	          0.12137146	          0.03664426	          0.01000064	          0.06676954	          0.01000099	          0.01000076	          0.40664214	          0.14204746	          0.01000023	          0.01000058	          0.01889408	          0.07847201	          0.02861250	          0.05084384	          0.02006814	          0.35314632	          0.01000068	          0.01140434	          0.16396643	          0.13147600	          0.01000007	
          1.47278755	         -6.73731756	         -4.06342503	          7.93755784	          1.56436718	          0.93417536	         -0.01276670	         30.37265958	          1.40024512	         -5.23167821	        -11.31913871	          3.07044881	          0.07626404	        -10.18208284	         -4.77882391	          2.02624597	        -20.58737921	          7.23930094	         38.36602389	         -2.37139576	          4.78057292	         -2.84914590	          0.07228786	          0.04696422	          0.01000025	          0.14878616	          0.12783017	          0.05050662	          0.06366877	          0.11727823	          0.02970093	          0.01000056	          0.13002080	          0.01000165	          0.01000119	          0.40970954	          0.14923572	          0.01000030	          0.01000075	          0.01531404	          0.09509073	          0.02319462	          0.04819906	          0.01626564	          0.29407483	          0.01000030	          0.01000006	          0.13289808	          0.10656394	          0.01000044	
